<svg width="64" height="64" viewBox="0 0 64 64" fill="none" xmlns="http://www.w3.org/2000/svg">
<rect width="64" height="64" rx="32" fill="#050000"/>
<path d="M34 46H46.375" stroke="white" stroke-width="1.5" stroke-linecap="round" stroke-linejoin="round"/>
<path d="M40.2442 19.9875C40.8765 19.3552 41.7341 19 42.6283 19C43.5226 19 44.3802 19.3552 45.0125 19.9875C45.6448 20.6198 46 21.4774 46 22.3717C46 23.2659 45.6448 24.1235 45.0125 24.7558L25.9363 43.8335C25.5585 44.2113 25.0914 44.4878 24.5783 44.6372L20.0165 45.9682C19.8799 46.0081 19.735 46.0105 19.5971 45.9752C19.4592 45.9398 19.3333 45.8681 19.2326 45.7674C19.1319 45.6667 19.0602 45.5408 19.0248 45.4029C18.9895 45.265 18.9919 45.1201 19.0318 44.9835L20.3628 40.4217C20.5125 39.9092 20.7889 39.4427 21.1665 39.0652L40.2442 19.9875Z" stroke="white" stroke-width="1.5" stroke-linecap="round" stroke-linejoin="round"/>
<path d="M37.625 23.0833L41.75 27.3333" stroke="white" stroke-width="1.5" stroke-linecap="round" stroke-linejoin="round"/>
</svg>
